HIERARCHY
ROOT Hips
{
	OFFSET 0.00000 0.00000 0.00000
	CHANNELS 6 Xposition Yposition Zposition Zrotation Yrotation Xrotation 
	JOINT LHipJoint
	{
		OFFSET 0 0 0
		CHANNELS 3 Zrotation Yrotation Xrotation
		JOINT LeftHip
		{
			OFFSET 3.13874 -1.57224 1.49786
			CHANNELS 3 Zrotation Yrotation Xrotation
			JOINT LeftKnee
			{
				OFFSET 2.10955 -5.79594 0.00000
				CHANNELS 3 Zrotation Yrotation Xrotation
				JOINT LeftAnkle
				{
					OFFSET 2.41843 -6.64458 0.00000
					CHANNELS 3 Zrotation Yrotation Xrotation
					JOINT LeftToe
					{
						OFFSET 0.04713 -0.12948 1.66229
						CHANNELS 3 Zrotation Yrotation Xrotation
						End Site
						{
							OFFSET 0.00000 -0.00000 0.85167
						}
					}
				}
			}
		}
	}
	JOINT RHipJoint
	{
		OFFSET 0 0 0
		CHANNELS 3 Zrotation Yrotation Xrotation
		JOINT RightHip
		{
			OFFSET -3.13988 -1.57224 1.49786
			CHANNELS 3 Zrotation Yrotation Xrotation
			JOINT RightKnee
			{
				OFFSET -2.15006 -5.90725 0.00000
				CHANNELS 3 Zrotation Yrotation Xrotation
				JOINT RightAnkle
				{
					OFFSET -2.34496 -6.44273 0.00000
					CHANNELS 3 Zrotation Yrotation Xrotation
					JOINT RightToe
					{
						OFFSET -0.08699 -0.23900 1.55223
						CHANNELS 3 Zrotation Yrotation Xrotation
						End Site
						{
							OFFSET -0.00000 -0.00000 0.80281
						}
					}
				}
			}
		}
	}
	JOINT lowerback
	{
		OFFSET 0 0 0
		CHANNELS 3 Zrotation Yrotation Xrotation
		JOINT Chest
		{
			OFFSET 0.01292 1.96517 -0.16495
			CHANNELS 3 Zrotation Yrotation Xrotation
			JOINT Chest2
			{
				OFFSET 0.02122 1.88666 0.19706
				CHANNELS 3 Zrotation Yrotation Xrotation
				JOINT lowerneck
				{
					OFFSET 0 0 0
					CHANNELS 3 Zrotation Yrotation Xrotation
					JOINT Neck
					{
						OFFSET -0.01683 1.81591 0.07903
						CHANNELS 3 Zrotation Yrotation Xrotation
						JOINT Head
						{
							OFFSET 0.00815 1.74013 -0.47700
							CHANNELS 3 Zrotation Yrotation Xrotation
							End Site
							{
								OFFSET -0.00204 1.83225 -0.16933
							}
						}
					}
				}
				JOINT LeftCollar
				{
					OFFSET 0 0 0
					CHANNELS 3 Zrotation Yrotation Xrotation
					JOINT LeftShoulder
					{
						OFFSET 3.38482 1.41533 0.19802
CHANNELS 3 Zrotation Xrotation Yrotation
						JOINT LeftElbow
						{
OFFSET 0 -4.327120 0.000000
CHANNELS 3 Zrotation Xrotation Yrotation
							JOINT LeftWrist
							{
OFFSET 0 -3.285870 -0.000000
CHANNELS 3 Zrotation Xrotation Yrotation
								JOINT lhand
								{
									OFFSET 0 0 0
CHANNELS 3 Zrotation Xrotation Yrotation
									JOINT LFingers
									{
OFFSET 0 -0.433160 -0.000000
CHANNELS 3 Zrotation Xrotation Yrotation
										End Site
										{
OFFSET 0 -0.349220 -0.000000
										}
									}
								}
								JOINT LThumb
								{
OFFSET 0 0.000000 0.000000
CHANNELS 3 Zrotation Xrotation Yrotation
									End Site
									{
OFFSET 0 -0.354560 0.354560
									}
								}
							}
						}
					}
				}
				JOINT RightCollar
				{
					OFFSET 0 0 0
					CHANNELS 3 Zrotation Yrotation Xrotation
					JOINT RightShoulder
					{
						OFFSET -3.09725 1.62858 -0.14144
CHANNELS 3 Zrotation Xrotation Yrotation
						JOINT RightElbow
						{
OFFSET 0 -4.291040 0.000000
CHANNELS 3 Zrotation Xrotation Yrotation
							JOINT RightWrist
							{
OFFSET 0 -3.227200 -0.000000
CHANNELS 3 Zrotation Xrotation Yrotation
								JOINT rhand
								{
									OFFSET 0 0 0
CHANNELS 3 Zrotation Xrotation Yrotation
									JOINT RFingers
									{
OFFSET 0 -0.543620 -0.000000
CHANNELS 3 Zrotation Xrotation Yrotation
										End Site
										{
OFFSET 0 -0.438280 -0.000000
										}
									}
								}
								JOINT RThumb
								{
OFFSET 0 0.000000 0.000000
CHANNELS 3 Zrotation Xrotation Yrotation
									End Site
									{
OFFSET 0 -0.444970 0.444970
									}
								}
							}
						}
					}
				}
			}
		}
	}
}
MOTION
Frames: 9
Frame Time: 0.008333333333333333
26.488700 16.003900 5.052500 -177.102000 1.212800 -171.155000 0.000000 0.000000 0.000000 -25.367000 -20.841500 -2.334300 0.467200 4.384200 12.160000 0.682500 -11.624400 -15.740400 2.062100 -8.994200 -25.777200 0.000000 0.000000 0.000000 36.858000 18.006900 9.192900 -0.217200 3.000000 -8.278800 0.040300 -14.366300 -19.954400 -0.114200 2.179200 -6.001200 3.752700 2.142400 5.084300 0.400600 4.182900 -9.446800 -2.396200 1.975300 -12.902700 10.573700 7.510200 -11.152500 2.680900 5.551200 29.491300 -0.178500 3.273200 11.855900 -0.000000 -0.000000 0.000000 10.509900 14.935300 -29.456100 15.309200 -24.575100 3.353500 22.264600 23.260200 -25.814600 0.000000 0.000000 0.000000 -7.125000 0.000000 0.000000 -8.401400 57.378600 2.559200 -0.000000 -0.000000 0.000000 -13.149300 21.620300 31.859300 -18.002800 -28.160700 -4.550500 -26.576200 0.452700 17.464300 0.000000 0.000000 0.000000 7.125000 0.000000 -0.000000 1.365800 49.355900 -0.146700
26.482965 16.007991 5.043860 -177.044654 1.125214 -171.214257 0.000000 0.000000 0.000000 -25.331560 -20.593614 -2.063744 0.432525 4.214725 11.682273 0.682921 -11.407251 -15.681755 2.048184 -8.965604 -25.687856 0.000000 0.000000 0.000000 36.954723 17.734700 9.599824 -0.254666 3.232823 -8.928908 0.071725 -14.503815 -19.792953 -0.098946 2.018174 -5.556237 3.741766 2.155475 5.011012 0.373801 4.203850 -9.485374 -2.420170 1.988451 -12.899718 10.523809 7.408966 -11.141375 2.738628 5.417508 29.370377 -0.170395 3.214860 11.795878 0.000000 0.000000 0.000000 10.537808 14.984158 -29.409153 15.283471 -24.539508 3.342834 22.217691 23.320528 -25.591258 0.000000 0.000000 0.000000 -7.125000 0.000000 0.000000 -8.351051 57.139125 2.495814 0.000000 0.000000 0.000000 -12.956772 21.663691 31.479290 -18.010981 -28.171175 -4.554399 -26.678046 0.431864 17.431842 0.000000 0.000000 0.000000 7.125000 0.000000 0.000000 1.259558 49.337091 -0.134772
26.477231 16.012081 5.035220 -176.987309 1.037628 -171.273514 0.000000 0.000000 0.000000 -25.296121 -20.345728 -1.793187 0.397850 4.045249 11.204546 0.683341 -11.190103 -15.623109 2.034268 -8.937007 -25.598511 0.000000 0.000000 0.000000 37.051446 17.462499 10.006748 -0.292132 3.465646 -9.579015 0.103151 -14.641329 -19.631506 -0.083692 1.857147 -5.111273 3.730832 2.168550 4.937725 0.347001 4.224801 -9.523949 -2.444141 2.001603 -12.896736 10.473919 7.307732 -11.130250 2.796356 5.283817 29.249455 -0.162290 3.156521 11.735857 0.000000 0.000000 0.000000 10.565716 15.033017 -29.362206 15.257742 -24.503915 3.332167 22.170783 23.380855 -25.367916 0.000000 0.000000 0.000000 -7.125000 0.000000 0.000000 -8.300701 56.899650 2.432428 0.000000 0.000000 0.000000 -12.764244 21.707083 31.099280 -18.019163 -28.181650 -4.558299 -26.779891 0.411029 17.399385 0.000000 0.000000 0.000000 7.125000 0.000000 0.000000 1.153316 49.318281 -0.122844
26.472260 16.016216 5.027153 -176.952588 0.951908 -171.327042 0.000000 0.000000 0.000000 -25.275284 -20.106951 -1.562532 0.367803 3.893888 10.778488 0.679545 -10.975584 -15.527031 2.020235 -8.908058 -25.508138 0.000000 0.000000 0.000000 37.113233 17.205108 10.373654 -0.328731 3.680722 -10.180716 0.139703 -14.791229 -19.424899 -0.076724 1.785208 -4.912416 3.690178 2.172442 4.859383 0.322053 4.229282 -9.559864 -2.446677 2.009906 -12.890302 10.434503 7.218721 -11.132185 2.810892 5.175276 29.153184 -0.167408 3.105909 11.690761 0.000000 0.000000 0.000000 10.605054 15.058458 -29.312086 15.220040 -24.451692 3.316565 21.926910 23.351052 -25.234073 0.000000 0.000000 0.000000 -7.125000 0.000000 0.000000 -8.499411 56.710374 2.450725 0.000000 0.000000 0.000000 -12.603551 21.754529 30.803112 -18.043886 -28.213237 -4.570014 -26.891830 0.347751 17.373817 0.000000 0.000000 0.000000 7.125000 0.000000 0.000000 1.038391 49.308654 -0.110285
26.468514 16.020421 5.020004 -176.954117 0.869178 -171.371389 0.000000 0.000000 0.000000 -25.277846 -19.882768 -1.395809 0.345170 3.771551 10.435218 0.668994 -10.765279 -15.370974 2.006013 -8.878545 -25.416118 0.000000 0.000000 0.000000 37.119044 16.971444 10.676439 -0.363941 3.867363 -10.704854 0.184471 -14.960972 -19.145932 -0.083032 1.856011 -5.107888 3.601904 2.161623 4.772944 0.300070 4.207376 -9.591519 -2.414869 2.010441 -12.878336 10.411870 7.149294 -11.155047 2.756222 5.107035 29.096412 -0.193710 3.067678 11.669581 0.000000 0.000000 0.000000 10.662706 15.046377 -29.256881 15.163153 -24.372823 3.293053 21.367446 23.176837 -25.243630 0.000000 0.000000 0.000000 -7.125000 0.000000 0.000000 -9.097181 56.601532 2.599900 0.000000 0.000000 0.000000 -12.493868 21.808472 30.641283 -18.095115 -28.278649 -4.594252 -27.019940 0.216467 17.359290 0.000000 0.000000 0.000000 7.125000 0.000000 0.000000 0.909554 49.313739 -0.096713
26.464767 16.024627 5.012855 -176.955646 0.786447 -171.415736 0.000000 0.000000 0.000000 -25.280407 -19.658585 -1.229086 0.322538 3.649214 10.091947 0.658442 -10.554973 -15.214918 1.991791 -8.849031 -25.324097 0.000000 0.000000 0.000000 37.124855 16.737779 10.979223 -0.399151 4.054004 -11.228993 0.229239 -15.130715 -18.866964 -0.089340 1.926813 -5.303360 3.513630 2.150804 4.686506 0.278088 4.185470 -9.623174 -2.383062 2.010976 -12.866369 10.389238 7.079868 -11.177909 2.701553 5.038794 29.039639 -0.220013 3.029448 11.648402 0.000000 0.000000 0.000000 10.720357 15.034296 -29.201677 15.106266 -24.293954 3.269542 20.807983 23.002621 -25.253188 0.000000 0.000000 0.000000 -7.125000 0.000000 0.000000 -9.694951 56.492690 2.749075 0.000000 0.000000 0.000000 -12.384185 21.862415 30.479454 -18.146344 -28.344061 -4.618490 -27.148050 0.085184 17.344762 0.000000 0.000000 0.000000 7.125000 0.000000 0.000000 0.780718 49.318823 -0.083141
26.461696 16.028039 5.008526 -176.981269 0.696753 -171.429232 0.000000 0.000000 0.000000 -25.271862 -19.431288 -1.185975 0.307163 3.561988 9.847607 0.636138 -10.393736 -14.954731 2.006394 -8.879192 -25.418243 0.000000 0.000000 0.000000 37.083361 16.554712 11.150258 -0.425899 4.186111 -11.601225 0.269834 -15.290732 -18.615058 -0.100584 2.039368 -5.614598 3.397590 2.121533 4.595512 0.270091 4.137443 -9.654535 -2.316671 2.002873 -12.855197 10.325970 7.055426 -11.251367 2.655022 5.034136 29.035579 -0.225277 3.018073 11.658397 0.000000 0.000000 0.000000 10.751946 14.967123 -29.064378 15.032190 -24.190815 3.239213 20.664015 23.006285 -25.414123 0.000000 0.000000 0.000000 -7.125000 0.000000 0.000000 -9.923709 56.625430 2.848388 0.000000 0.000000 0.000000 -12.355039 21.892030 30.478493 -18.203537 -28.416877 -4.645725 -27.202616 -0.139182 17.371047 0.000000 0.000000 0.000000 7.125000 0.000000 0.000000 0.731508 49.356640 -0.078560
26.458829 16.031212 5.005047 -177.014147 0.604962 -171.433437 0.000000 0.000000 0.000000 -25.259972 -19.203052 -1.180088 0.293974 3.485337 9.633058 0.610294 -10.247276 -14.663186 2.029676 -8.927324 -25.568450 0.000000 0.000000 0.000000 37.027621 16.386880 11.281617 -0.450099 4.301796 -11.927712 0.309173 -15.447821 -18.371302 -0.113315 2.164496 -5.960698 3.273188 2.086705 4.503148 0.266306 4.081550 -9.685807 -2.239866 1.992168 -12.844263 10.250465 7.044530 -11.340061 2.610943 5.048625 29.047392 -0.224207 3.014785 11.677780 0.000000 0.000000 0.000000 10.775687 14.883361 -28.902357 14.952939 -24.080367 3.206832 20.645167 23.063516 -25.620644 0.000000 0.000000 0.000000 -7.125000 0.000000 0.000000 -10.041344 56.830918 2.932686 0.000000 0.000000 0.000000 -12.350146 21.914318 30.525975 -18.262526 -28.491924 -4.673863 -27.235036 -0.391579 17.409621 0.000000 0.000000 0.000000 7.125000 0.000000 0.000000 0.706276 49.404313 -0.076687
26.456184 16.034379 5.002047 -177.043753 0.513901 -171.437760 0.000000 0.000000 0.000000 -25.244343 -18.981157 -1.171553 0.280808 3.408030 9.416767 0.584824 -10.106337 -14.374960 2.055196 -8.979845 -25.732506 0.000000 0.000000 0.000000 36.977695 16.229368 11.394080 -0.471652 4.404615 -12.217914 0.344113 -15.589291 -18.158022 -0.124164 2.271131 -6.255641 3.149429 2.054179 4.417964 0.264561 4.029432 -9.717383 -2.162237 1.983164 -12.838056 10.173710 7.028656 -11.415767 2.564035 5.061461 29.039024 -0.224808 3.010422 11.686487 0.000000 0.000000 0.000000 10.778709 14.811383 -28.702661 14.882557 -23.982266 3.178085 20.579335 23.117849 -25.788530 0.000000 0.000000 0.000000 -7.125000 0.000000 0.000000 -10.190280 56.987260 3.014209 0.000000 0.000000 0.000000 -12.351422 21.935602 30.586458 -18.319804 -28.564744 -4.701200 -27.250148 -0.660255 17.443422 0.000000 0.000000 0.000000 7.125000 0.000000 0.000000 0.697305 49.443894 -0.076438
